<?xml version="1.0" standalone="no"?>
<!DOCTYPE svg PUBLIC "-//W3C//DTD SVG 20010904//EN"
 "http://www.w3.org/TR/2001/REC-SVG-20010904/DTD/svg10.dtd">
<svg version="1.0" xmlns="http://www.w3.org/2000/svg"
 width="1024.000000pt" height="1024.000000pt" viewBox="0 0 1024.000000 1024.000000"
 preserveAspectRatio="xMidYMid meet">

<g transform="translate(0.000000,1024.000000) scale(0.100000,-0.100000)"
fill="#000000" stroke="none">
<path d="M4675 9169 c-834 -59 -1640 -381 -2315 -924 -142 -114 -430 -396
-541 -530 -215 -258 -310 -396 -492 -720 -50 -89 -197 -403 -197 -422 0 -3 17
13 37 37 253 296 675 542 1121 654 377 95 835 111 1297 45 593 -85 1100 -243
2340 -734 735 -291 1073 -378 1395 -362 292 15 504 119 736 359 151 157 294
362 403 578 59 116 59 108 -5 202 -160 233 -301 405 -489 594 -468 470 -986
793 -1616 1009 -152 52 -345 106 -479 134 -357 76 -819 106 -1195 80z m1374
-389 c381 -48 703 -326 806 -695 26 -93 31 -312 11 -416 -61 -304 -300 -592
-581 -700 -120 -47 -204 -62 -350 -62 -144 -1 -237 18 -367 73 -337 144 -567
498 -568 876 0 132 45 311 110 433 90 167 272 336 451 415 165 72 320 97 488
76z"/>
<path d="M8550 7060 c0 -452 -131 -807 -395 -1076 -105 -106 -167 -153 -302
-228 -261 -146 -568 -211 -873 -186 -476 39 -1044 245 -1833 666 -273 145
-290 154 -453 243 -452 243 -829 400 -1124 466 -576 130 -1074 136 -1568 19
-261 -62 -521 -179 -719 -323 -172 -127 -174 -129 -221 -272 -81 -245 -144
-511 -182 -764 -76 -513 -37 -1111 111 -1663 121 -457 370 -970 662 -1364 31
-42 61 -79 65 -82 5 -3 40 21 78 52 483 406 1145 882 1679 1207 88 54 171 104
185 113 14 9 51 31 83 49 31 18 85 49 120 69 315 182 757 407 1042 529 556
238 1049 392 1520 474 391 68 876 79 1180 26 321 -56 683 -256 924 -511 264
-279 378 -628 316 -969 -19 -107 -18 -118 6 -66 69 153 178 519 224 756 63
320 92 830 66 1155 -50 626 -235 1215 -553 1760 l-38 65 0 -145z m-6405 -950
c136 -16 237 -46 355 -105 604 -303 831 -1130 458 -1672 -144 -211 -370 -340
-629 -361 -176 -13 -315 12 -475 88 -284 134 -479 343 -595 638 -67 171 -83
260 -83 457 0 151 3 181 26 266 100 372 392 643 739 688 91 12 104 12 204 1z"/>
<path d="M6495 4073 c-168 -10 -326 -26 -449 -43 -682 -99 -1921 -520 -3416
-1160 -393 -169 -403 -173 -510 -220 -52 -23 -124 -54 -160 -69 -117 -50 -220
-102 -220 -111 0 -28 192 -242 395 -440 481 -469 1150 -841 1805 -1005 369
-92 620 -126 985 -132 480 -9 853 45 1334 193 515 157 943 388 1396 753 200
161 459 430 619 644 l59 78 -6 132 c-10 208 -63 402 -164 600 -182 356 -497
597 -929 710 -225 60 -498 85 -739 70z m-324 -934 c350 -87 612 -357 691 -712
26 -119 21 -312 -12 -427 -91 -323 -337 -567 -666 -662 -67 -19 -102 -23 -234
-22 -139 0 -164 3 -243 27 -301 93 -536 315 -631 597 -40 121 -49 186 -44 342
4 132 7 151 40 249 47 137 104 232 202 336 95 101 175 160 289 213 128 60 216
78 383 79 111 1 158 -3 225 -20z"/>
</g>
</svg>
